<svg xmlns="http://www.w3.org/2000/svg" viewBox="0 0 900 760" role="img" aria-labelledby="t d"><title id="t">Editorial de moda Nubes 1982</title><desc id="d">Perchero, vestido, bolso, complementos y notas de color para una tienda de moda.</desc><rect width="900" height="760" fill="#f5f2ed"/><rect x="80" y="86" width="740" height="560" rx="18" fill="#fbfaf7"/><path d="M190 164h520" stroke="#26342f" stroke-width="14" stroke-linecap="round"/><path d="M232 164v392M668 164v392" stroke="#26342f" stroke-width="10" stroke-linecap="round"/><path d="M360 164c0 40-58 47-70 116l-42 220h218l-40-220c-12-69-66-76-66-116z" fill="#a95f64"/><path d="M512 178c-18 70-34 116-84 154 51 33 65 76 82 160h160c-24-100-54-173-82-314h-76z" fill="#607466"/><path d="M250 570h430" stroke="#26342f" stroke-width="10" stroke-linecap="round"/><circle cx="702" cy="476" r="62" fill="#d8b8a9"/><path d="M652 476c6 50 22 86 50 86s44-36 50-86" fill="none" stroke="#26342f" stroke-width="8"/><rect x="130" y="522" width="140" height="72" rx="12" fill="#26342f"/><circle cx="170" cy="558" r="10" fill="#fbfaf7"/><circle cx="230" cy="558" r="10" fill="#fbfaf7"/><path d="M315 604c42-22 86-22 128 0" stroke="#b96f59" stroke-width="12" stroke-linecap="round"/><text x="116" y="704" font-family="Georgia,serif" font-size="42" fill="#26342f">Cambia tu estilo, cambia tu vida.</text></svg>