<svg xmlns="http://www.w3.org/2000/svg" viewBox="0 0 900 760" role="img" aria-labelledby="t d">
  <title id="t">Nubes 1982 calm wardrobe</title>
  <desc id="d">Soft wardrobe planner with folded clothes, color notes and cloud-shaped mirror.</desc>
  <rect width="900" height="760" fill="#f3f6f8"/>
  <rect x="82" y="76" width="736" height="590" rx="34" fill="#fff" stroke="#d8e0e6" stroke-width="4"/>
  <path d="M216 214c18-56 68-86 126-76 28-46 92-54 132-14 66-20 128 24 130 88 48 12 80 48 80 94 0 64-52 108-126 108H248c-78 0-132-42-132-100 0-50 38-90 100-100z" fill="#edf3f6" stroke="#202a33" stroke-width="7"/>
  <rect x="148" y="482" width="168" height="82" rx="14" fill="#667c8f"/>
  <rect x="348" y="482" width="168" height="82" rx="14" fill="#b9a1a5"/>
  <rect x="548" y="482" width="168" height="82" rx="14" fill="#7d8a76"/>
  <path d="M156 604h560" stroke="#202a33" stroke-width="8" stroke-linecap="round"/>
  <circle cx="188" cy="246" r="18" fill="#667c8f"/>
  <circle cx="708" cy="246" r="18" fill="#b9a1a5"/>
  <path d="M328 628c52-22 116-22 168 0" stroke="#667c8f" stroke-width="12" stroke-linecap="round"/>
  <text x="122" y="708" font-family="Segoe UI,Arial,sans-serif" font-size="34" font-weight="700" fill="#202a33">Cambia tu estilo, respira tu vida.</text>
</svg>
